<svg xmlns="http://www.w3.org/2000/svg" width="12" height="12" viewBox="0 0 12 12"><path d="M11.864 3.017a.43.43 0 0 0-.327-.154H9.225V4.09c0 .563-.484 1.022-1.08 1.022-.594 0-1.078-.458-1.078-1.022V2.863H4.91V4.09c0 .563-.486 1.022-1.08 1.022-.596 0-1.08-.458-1.08-1.022V2.863H.44a.43.43 0 0 0-.327.154.472.472 0 0 0-.107.358L.78 10.51c.014.805.64 1.454 1.41 1.454h7.595c.77 0 1.396-.65 1.41-1.455l.777-7.135a.476.476 0 0 0-.108-.358z"/><path d="M3.83 4.5c.238 0 .432-.185.432-.41V1.84c0-.632.672-1.022 1.295-1.022h1.08c.654 0 1.077.4 1.077 1.022v2.25c0 .225.194.41.43.41.24 0 .434-.185.434-.41V1.84C8.578.773 7.76 0 6.636 0h-1.08C4.367 0 3.4.826 3.4 1.84v2.25c0 .225.194.41.43.41z"/></svg>