<svg xmlns="http://www.w3.org/2000/svg" width="156" height="188" viewBox="0 0 156 188"><g fill="#FFF"><circle cx="141.25" cy="68.877" r="14.75"/><path d="M89.113 139.544L82.04 157.42l-22.825 14.916a7.16 7.16 0 0 0-3.634 6.23 7.167 7.167 0 0 0 7.168 7.167 7.12 7.12 0 0 0 4.12-1.31c3.762-2.37 22.352-14.084 25.496-15.88 3.5-2 4.125-5.125 4.125-5.125l4.874-16-5.75-2.625c-5.75-2.625-6.5-5.25-6.5-5.25z"/><path d="M139.32 141.462s-1.157-3.834-4.578-5.167-18.087-7.75-18.087-7.75l15.416-25.584s3.835-9-.332-13.416-13.75-9.75-13.75-9.75h-7.52l15.798-26.8c3.354-5.687 1.443-13.082-4.242-16.433L72.634 7.448C66.946 4.095 59.553 6.005 56.2 11.69L9.144 91.52c-3.35 5.684-1.442 13.08 4.244 16.43l49.39 29.114c5.686 3.352 13.08 1.44 16.432-4.242l22.934-38.903h8.096l-14.75 26.208s-5.134 9.214-.334 14.25c4.21 4.416 12.667 6.916 12.667 6.916l17.25 6.5 5.1 31.292h.01c.55 3.412 3.5 6.022 7.067 6.022a7.166 7.166 0 0 0 7.166-7.167c0-.188-.014-.374-.028-.56l.028-.003-5.095-35.915zM17.96 100.198c-1.4-.826-1.887-2.708-1.06-4.108l47.058-79.83c.826-1.4 2.707-1.887 4.107-1.06l11.52 6.79-50.103 85-11.522-6.792zm53.498 28.054c-.826 1.4-2.707 1.887-4.107 1.06L37.232 111.56 87.34 26.562l30.113 17.753c1.402.826 1.887 2.707 1.062 4.107l-18.493 31.372H91.24L71.322 94.222a7.155 7.155 0 0 0-1.23.89l-.03.023v.003a7.142 7.142 0 0 0-2.357 5.304 7.167 7.167 0 0 0 7.167 7.167 7.12 7.12 0 0 0 4.15-1.332v.003l.072-.057a6.87 6.87 0 0 0 .524-.423l9.66-7.784-17.824 30.236z"/></g><path fill="#F0C42E" d="M49.22 5.943L2.16 85.773c-3.35 5.684-1.44 13.08 4.245 16.43l49.39 29.114c5.686 3.352 13.08 1.44 16.432-4.242l47.057-79.83c3.354-5.685 1.443-13.08-4.242-16.43L65.65 1.7C59.965-1.652 52.57.258 49.22 5.943zm-39.306 84.4l47.06-79.83c.825-1.4 2.706-1.887 4.106-1.06l11.52 6.79-50.104 85-11.522-6.792c-1.4-.825-1.886-2.707-1.06-4.107zM111.53 42.676l-47.058 79.83c-.826 1.4-2.707 1.886-4.107 1.06L30.25 105.812l50.105-84.996 30.113 17.753c1.403.824 1.887 2.705 1.063 4.106z"/><g fill="#3A3A3A"><circle cx="135.25" cy="63.083" r="14.75"/><path d="M81.875 133.75L74.8 151.625l-22.824 14.917a7.16 7.16 0 0 0-3.634 6.23 7.167 7.167 0 0 0 7.167 7.167 7.12 7.12 0 0 0 4.12-1.31c3.76-2.372 22.35-14.085 25.495-15.88 3.5-2 4.125-5.126 4.125-5.126l4.875-16-5.75-2.625c-5.75-2.626-6.5-5.25-6.5-5.25zM132.083 135.668s-1.158-3.834-4.58-5.167-18.086-7.75-18.086-7.75l15.416-25.583s3.834-9-.333-13.417S110.75 74 110.75 74H84L64.085 88.427a7.208 7.208 0 0 0-1.23.89l-.03.023v.003a7.14 7.14 0 0 0-2.357 5.303 7.167 7.167 0 0 0 7.167 7.167 7.12 7.12 0 0 0 4.15-1.33v.002l.072-.058c.182-.133.357-.273.525-.423l14.743-11.88H103L88.25 114.33s-5.134 9.214-.334 14.25c4.21 4.416 12.667 6.916 12.667 6.916l17.25 6.5 5.1 31.292h.01c.55 3.412 3.5 6.022 7.067 6.022a7.166 7.166 0 0 0 7.166-7.167c0-.19-.014-.375-.028-.56l.028-.004-5.093-35.912z"/></g></svg>