<svg xmlns="http://www.w3.org/2000/svg" width="136" height="164" viewBox="0 0 136 164"><g fill="#FFF"><path d="M93.133 38.767c8.12 0 14.945-5.542 16.9-13.05l5.467.815a2.16 2.16 0 0 0 2.45-1.816 2.157 2.157 0 0 0-1.815-2.45l-5.54-.826c0-.046.003-.09.003-.138 0-.182-.006-.362-.014-.542 0 0-.45-6.518-1.074-9.237-.62-2.72-2.535-3.296-2.535-3.296C97.205 6.015 87.203 5.79 84.6 5.79s-3.158 1.33-3.158 1.33l-3.15 4.997-.01-.003c-.076.122-.146.245-.22.368l-.026.043a17.387 17.387 0 0 0-2.367 8.777c-.002 9.646 7.818 17.465 17.463 17.465zM131.535 78.076v-.002l-26.742-2.168-9.246-21.112s-.46-2.774-6.008-8.476c-5.55-5.702-16.8-3.39-16.8-3.39s-23.886 4.47-31.745 6.318c-7.86 1.85-8.168 9.863-8.168 9.863l-.632 4.518-15.178-2.94A3.012 3.012 0 0 0 13.5 63.06L6.09 101.3a3.008 3.008 0 0 0 2.375 3.517l51.196 9.922c.116.022.23.024.347.033h.002c-.73.104-1.292-.035-1.292-.035l-9.4-1.85-3.082 17.106-23.56 20.363a7.43 7.43 0 1 0 9.857 11.086s27.725-22.05 29.575-23.592c1.85-1.54 2.773-3.853 2.773-3.853s4.542-13.947 5.78-16.873c.848-2.004 4.932-1.08 4.932-1.08l22.885 8.632 7.615 29.06c.082.63.242 1.235.473 1.805h.002a7.428 7.428 0 0 0 14.112-4.512c-.843-4.965-4.605-27.046-5.562-31.826-1.078-5.394-4.62-6.934-4.62-6.934s-21.27-11.558-22.655-12.33c-1.387-.77-1.078-2.773-1.078-2.773l3.93-14.33 2.773 5.855s1.62 3.274 4.084 3.39l33.357.82a7.43 7.43 0 0 0 7.43-7.43 7.43 7.43 0 0 0-6.805-7.4zm-71.43-15.27l-1.79 5.88 9.898 1.92L48 66.69l.547-2.497 11.557-1.386zm-2.25 45.474L12.55 99.5l6.27-32.354 12.543 2.43-1.618 11.568-.64 4.406c-.005.026-.008.056-.012.082l-.018.127h.002a7.43 7.43 0 0 0 7.367 8.38 7.428 7.428 0 0 0 7.368-8.367l2.9-13.223 17.414 3.374-6.27 32.356zM25.05 17.008h38.027a2 2 0 0 0 2-1.99 2 2 0 0 0-2-1.99H25.05a2 2 0 0 0-2 1.99 2 2 0 0 0 2 1.99zM38.08 23.025a2 2 0 0 0-2 1.99 2 2 0 0 0 2 1.99h22.96a2 2 0 0 0 2-1.99 2 2 0 0 0-2-1.99H38.08z"/></g><path fill="#3A3A3A" d="M87.098 32.732c8.12 0 14.945-5.542 16.9-13.05l5.467.815a2.16 2.16 0 0 0 2.45-1.816 2.157 2.157 0 0 0-1.815-2.45l-5.54-.825c0-.046.003-.09.003-.138 0-.182-.006-.362-.014-.542 0 0-.452-6.518-1.075-9.237-.62-2.72-2.535-3.296-2.535-3.296C91.17-.02 81.168-.246 78.564-.246s-3.158 1.332-3.158 1.332l-3.15 4.996-.01-.003c-.076.12-.146.244-.22.367L72 6.49a17.387 17.387 0 0 0-2.367 8.777c0 9.646 7.82 17.465 17.465 17.465zM125.5 72.04l-26.742-2.17-9.246-21.11s-.46-2.775-6.008-8.477c-5.55-5.702-16.8-3.39-16.8-3.39S42.82 41.363 34.96 43.21c-7.86 1.85-8.168 9.863-8.168 9.863L23.71 75.11l-.64 4.405c-.005.026-.008.056-.012.082l-.018.127h.002a7.43 7.43 0 0 0 7.367 8.38 7.428 7.428 0 0 0 7.367-8.366l4.734-21.58L54.07 56.77l-1.79 5.88 9.9 1.92a3.01 3.01 0 0 1 2.374 3.517L57.14 106.33a3.012 3.012 0 0 1-2.948 2.43c-.072 0-.146-.016-.22-.02-.728.103-1.29-.036-1.29-.036l-9.4-1.85-3.083 17.106-23.56 20.363a7.43 7.43 0 1 0 9.857 11.086s27.724-22.05 29.574-23.59c1.85-1.542 2.774-3.855 2.774-3.855s4.54-13.948 5.78-16.874c.847-2.003 4.93-1.078 4.93-1.078l22.886 8.63 7.615 29.063c.082.63.242 1.234.473 1.804h.002a7.428 7.428 0 0 0 14.112-4.513c-.842-4.965-4.604-27.046-5.56-31.826-1.08-5.393-4.622-6.933-4.622-6.933S83.193 94.682 81.807 93.91c-1.387-.77-1.078-2.774-1.078-2.774l3.93-14.33 2.772 5.855s1.62 3.275 4.084 3.392l33.357.82a7.43 7.43 0 0 0 .627-14.83z"/><path fill="#F0C42E" d="M53.97 108.74h.003c.073.005.147.02.22.02 1.407 0 2.67-1 2.948-2.43l7.413-38.243a3.01 3.01 0 0 0-2.375-3.517l-20.214-3.917-1.286 5.862L58.09 69.89l-6.27 32.353-45.304-8.78 6.27-32.352 12.542 2.432.832-5.95-15.178-2.942a3.012 3.012 0 0 0-3.516 2.374L.056 95.268a3.008 3.008 0 0 0 2.374 3.516l51.196 9.923c.114.022.23.023.345.032z"/><path fill="#F0C52E" d="M59.042 8.982a2 2 0 0 1-2 1.99H19.015a2 2 0 0 1-2-1.99 2 2 0 0 1 2-1.99h38.027c1.1 0 2 .896 2 1.99zM57.004 18.98a2 2 0 0 1-2 1.99h-22.96a2 2 0 0 1-2-1.99 2 2 0 0 1 2-1.99h22.96a2 2 0 0 1 2 1.99z"/></svg>