<svg xmlns="http://www.w3.org/2000/svg" width="26.943" height="34.09" viewBox="0 0 26.943 34.09"><path d="M13.62.017L13.472 0 0 1.412v24.66l13.473 8.018 13.43-7.99.042-.025V1.412L13.62.017zm11.4 12.11L13.494 5.334V5.23l-.088.05-.088-.056v.11L1.924 12.117v-8.97l11.548-1.213L25.02 3.147v8.98zm-11.615-5.34L24.923 13.5l-4.48 2.64-7.092-4.22-.013 1.414 5.904 3.513-.86.507-5.03-2.992-.013 1.415 3.827 2.275-.782.523-3.03-1.787-.015 1.413 1.853 1.092-1.8 1.08-11.356-6.75 11.37-6.835zm-11.48 8.34l11.41 6.79.017 1.045-7.942-4.728-.015 1.416 7.98 4.795.017 1.076-7.973-4.74-.014 1.415 8.02 4.822.047.025 8.143-4.872-.01-5.177 3.414-2.036v10.02L13.472 31.85 1.925 24.98v-9.853z"/></svg>