<svg xmlns="http://www.w3.org/2000/svg">
  <symbol id="popular-1" viewBox="0 0 97 55">
    <path d="M84.13 32.64V20.002c0-1.31 1.046-2.37 2.336-2.37l8.326 1.58V11.02c0-2.355-1.708-3.43-4.202-4.265L67.403.175c1.616 1.39 1.89 2.04 1.89 4.396v45.21c0 2.356-.45 4.066-1.968 5.21l23.265-7.065c2.4-.833 4.202-4.216 4.202-6.572V33.44l-8.326 1.567c-1.29.002-2.335-1.06-2.335-2.368z"/>
    <path d="M95.13 20.98l-7.6-1.445c-1.007 0-1.823.83-1.823 1.85v9.87c0 1.022.816 1.85 1.824 1.85l7.6-1.43c1.153-.42 1.823-.83 1.823-1.852V22.83c0-1.022-.766-1.507-1.824-1.85zM67.17 4.483c0-5.08-4.232-4.46-4.232-4.46S5.832 4.74 2.838 5.146 0 9.532 0 9.532v36.28c0 3.743 2.6 3.753 2.6 3.753l16.476 1.403L27.212 39.3s1.11-1.828 2.505-1.828c1.397 0 2.432 1.86 2.432 1.86l9.06 13.522s18.895 1.91 22.52 1.91c3.627-.002 3.44-5.025 3.44-5.025V4.482zm-54.188 32.71c-3.698 0-6.696-4.602-6.696-10.276s2.998-10.275 6.696-10.275c3.698 0 6.696 4.6 6.696 10.275s-2.998 10.275-6.696 10.275zm36.158 1.425c-4.662 0-8.44-5.24-8.44-11.7 0-6.464 3.78-11.703 8.44-11.703 4.662 0 8.442 5.24 8.442 11.702s-3.78 11.7-8.442 11.7z"/>
  </symbol>
  <symbol id="popular-2" viewBox="0 0 86 177">
    <path d="M82.82 4.01H3.33A3.188 3.188 0 0 0 .142 7.2V53.61a3.187 3.187 0 0 0 3.188 3.19h79.492a3.188 3.188 0 0 0 3.19-3.19V7.2a3.19 3.19 0 0 0-3.19-3.19zM8.393 37.237h-.226a3.19 3.19 0 0 1-3.19-3.19v-7.282a3.188 3.188 0 0 1 3.19-3.188h.226v13.66zm61.23 15.172h-56.28V8.402h56.28v44.006zM78.4 34.552c-2.29 0-4.146-1.855-4.146-4.147s1.856-4.147 4.146-4.147a4.146 4.146 0 0 1 0 8.294zM31.497 0h23.157v2.758H31.497zM46.608 64.86V61.89h8.046V59.13H31.498v2.758h8.045v35.246a6.068 6.068 0 0 0-3.635 5.56V117h14.335v-14.307a6.062 6.062 0 0 0-3.636-5.557v-27.99h4.796l5.05 1.213v-6.712l-5.05 1.213h-4.795z"/>
  </symbol>
  <symbol id="popular-3" viewBox="0 0 71 87">
    <path d="M53.35 1.49c0-.736-.58-1.49-1.312-1.49H9.053c-.733 0-1.38.754-1.38 1.49v3.522h45.675V1.49zM54.202 81.81h-9.597V71.425h-6.958v2.507H18.774c-.537-1.254-1.757-2.148-3.18-2.148H3.558C1.64 71.785 0 73.387 0 75.31v3.02c0 1.923 1.642 3.48 3.56 3.48h12.034c1.51 0 2.792-.897 3.27-2.327h18.784v2.326H28.13c-.533 0-1.01.436-1.01.97v3.173c0 .535.478 1.048 1.01 1.048h26.072c.533 0 .93-.512.93-1.047V82.78c0-.535-.397-.97-.93-.97zM60.666 12.39a7.037 7.037 0 0 0-6.77-5.05H7.147C3.25 7.34 0 10.45 0 14.36v46.9c0 3.913 3.25 7.122 7.148 7.122h46.747c3.898 0 7.126-3.21 7.126-7.12V50.914A23.228 23.228 0 0 0 71.023 31.75c0-8.078-4.132-15.18-10.356-19.36zM12.238 62.15c-3.26 0-5.9-2.65-5.9-5.92s2.64-5.922 5.9-5.922 5.902 2.652 5.902 5.922c0 3.27-2.643 5.92-5.902 5.92zm5.96-32.604a1.42 1.42 0 0 1-1.417 1.422H7.84a1.42 1.42 0 0 1-1.417-1.422v-14.16a1.42 1.42 0 0 1 1.418-1.423h8.94a1.42 1.42 0 0 1 1.418 1.423v14.16zm29.564 22.312c-11.076 0-20.057-9.01-20.057-20.123s8.98-20.124 20.057-20.124c11.077 0 20.058 9.01 20.058 20.125s-8.98 20.123-20.058 20.123z"/>
    <ellipse cx="47.762" cy="31.735" rx="12.188" ry="12.229"/>
    <circle cx="31.562" cy="31.736" r="1.435"/>
    <circle cx="63.963" cy="31.736" r="1.435"/>
    <circle cx="39.109" cy="17.994" r="1.435"/>
    <ellipse cx="56.415" cy="45.476" rx="1.43" ry="1.436"/>
    <circle cx="55.697" cy="17.565" r="1.435"/><circle cx="39.828" cy="45.906" r="1.435"/>
  </symbol>
  <symbol id="popular-4" viewBox="0 0 107 65">
    <path d="M98.967 4.074c.752 1.44 1.21 3.08 1.21 4.818v21.102c0 4.616-3.093 8.527-7.247 9.9-1.325 3.987-3.778 7.854-8.05 10.432-8.677 5.23-31.125 4.837-31.2 4.837-.077 0-22.512.395-31.188-4.837-4.216-2.545-6.708-6.347-8.042-10.28-4.418-1.208-7.756-5.25-7.756-10.052v-21.1c0-1.69.427-3.283 1.14-4.694C4.17 5.11 0 6.918 0 10.434v29.983C0 50.667 11.84 64.85 53.657 64.85c41.82 0 53.657-14.182 53.657-24.433V10.434c0-3.684-4.576-5.494-8.347-6.36z"/>
    <path d="M20.56 38.46h65.524c5.564 0 10.074-4.514 10.074-10.078V9.935c0-5.563-4.51-10.075-10.074-10.075H20.56c-5.563 0-10.074 4.51-10.074 10.075v18.447c0 5.564 4.51 10.077 10.075 10.077zM83.696 9.467a1.57 1.57 0 1 1 0 3.14 1.57 1.57 0 0 1 0-3.14zm0 4.04a1.57 1.57 0 1 1 0 3.137 1.57 1.57 0 0 1 0-3.138zm0 4.038a1.568 1.568 0 1 1 0 3.137 1.568 1.568 0 0 1 0-3.137zm0 3.827a1.57 1.57 0 1 1 0 3.14 1.57 1.57 0 0 1 0-3.14zm0 4.04a1.568 1.568 0 1 1 0 3.136 1.568 1.568 0 0 1 0-3.138zm-4.04-15.945c.868 0 1.57.703 1.57 1.57a1.568 1.568 0 0 1-3.137 0c0-.868.703-1.57 1.568-1.57zm0 15.944a1.568 1.568 0 1 1 .002 3.135 1.568 1.568 0 0 1 0-3.135zM75.62 9.468a1.57 1.57 0 1 1-.004 3.14 1.57 1.57 0 0 1 .003-3.14zm0 4.04a1.57 1.57 0 1 1-.004 3.138 1.57 1.57 0 0 1 .003-3.14zm0 4.038a1.57 1.57 0 1 1-.003 3.138 1.57 1.57 0 0 1 .002-3.138zm0 3.827a1.568 1.568 0 1 1 0 3.138 1.568 1.568 0 0 1 0-3.138zm0 4.04a1.57 1.57 0 1 1-.003 3.137 1.57 1.57 0 0 1 .002-3.138zM67.964 9.467c.867 0 1.568.703 1.568 1.57a1.568 1.568 0 0 1-3.136 0c0-.868.703-1.57 1.568-1.57zm0 8.078c.867 0 1.568.702 1.568 1.57a1.568 1.568 0 1 1-1.568-1.57zm0 3.88a1.57 1.57 0 1 1-1.568 1.568c0-.866.703-1.567 1.568-1.567zm0 3.986a1.568 1.568 0 1 1-1.568 1.57c0-.868.703-1.57 1.568-1.57zm-4.04-15.944a1.57 1.57 0 1 1-1.568 1.57c0-.868.704-1.57 1.57-1.57zm0 8.078a1.57 1.57 0 1 1-1.568 1.57c0-.868.704-1.57 1.57-1.57zm0 7.866a1.57 1.57 0 1 1-1.568 1.57c0-.868.704-1.57 1.57-1.57zM59.89 9.468a1.57 1.57 0 0 1 0 3.14 1.568 1.568 0 0 1-1.568-1.57c0-.868.7-1.57 1.568-1.57zm0 4.04c.865 0 1.57.702 1.57 1.567a1.57 1.57 0 1 1-1.57-1.568zm0 4.038a1.57 1.57 0 1 1-1.568 1.57c0-.868.7-1.57 1.568-1.57zm0 7.866a1.57 1.57 0 0 1 0 3.137 1.57 1.57 0 1 1 0-3.138zm-8.29-15.944a1.57 1.57 0 1 1-1.568 1.57c0-.868.7-1.57 1.568-1.57zm0 4.04a1.57 1.57 0 1 1-1.568 1.567c0-.865.7-1.568 1.568-1.568zm0 4.038a1.568 1.568 0 1 1-1.568 1.57c0-.868.7-1.57 1.568-1.57zm0 3.88a1.568 1.568 0 0 1 0 3.138 1.57 1.57 0 1 1 0-3.137zm0 3.986a1.568 1.568 0 1 1-1.568 1.57c0-.868.7-1.57 1.568-1.57zm-4.04-11.905a1.568 1.568 0 1 1 0 3.136 1.568 1.568 0 0 1 0-3.136zm-8.5-.212a1.57 1.57 0 1 1 0 3.135 1.57 1.57 0 0 1 0-3.135zm0 4.038a1.57 1.57 0 1 1-.004 3.14 1.57 1.57 0 0 1 .003-3.14zm-4.04-8.078a1.57 1.57 0 1 1-.003 3.14 1.57 1.57 0 0 1 .003-3.14zm0 4.04a1.57 1.57 0 1 1-.003 3.14 1.57 1.57 0 0 1 .003-3.14zm0 4.038a1.57 1.57 0 1 1-.003 3.14 1.57 1.57 0 0 1 .003-3.14zm0 4.04a1.57 1.57 0 1 1 0 3.137 1.57 1.57 0 0 1 0-3.137zm-4.254-8.078a1.57 1.57 0 1 1 0 3.138 1.57 1.57 0 0 1 0-3.138zm0 4.038a1.57 1.57 0 1 1 0 3.14 1.57 1.57 0 0 1 0-3.14zm0 4.04a1.57 1.57 0 1 1 0 3.14 1.57 1.57 0 0 1 0-3.14zm0 4.04a1.568 1.568 0 1 1 0 3.136 1.568 1.568 0 0 1 0-3.138zM26.3 9.254a1.57 1.57 0 1 1 .002 3.136 1.57 1.57 0 0 1-.002-3.136zm0 4.04c.867 0 1.57.703 1.57 1.568a1.57 1.57 0 0 1-3.14 0 1.57 1.57 0 0 1 1.57-1.568zm0 4.038a1.57 1.57 0 0 1 0 3.14 1.57 1.57 0 0 1 0-3.14zm0 4.04a1.57 1.57 0 1 1 .003 3.135 1.57 1.57 0 0 1-.003-3.135zm-4.037-8.078a1.57 1.57 0 1 1 0 3.135 1.57 1.57 0 0 1 0-3.135zm0 4.038a1.57 1.57 0 0 1 0 3.14 1.57 1.57 0 1 1 0-3.14z"/>
  </symbol>
  <symbol id="popular-5" viewBox="0 0 56 98">
    <path d="M54.494 32.197H52.98v-4.64c0-5.052-4.088-9.186-9.083-9.186H9.082C4.086 18.373 0 22.506 0 27.558v42.868c0 5.052 4.087 9.185 9.083 9.185h34.815c4.995 0 9.082-4.133 9.082-9.185V67.01h1.515a.764.764 0 0 0 .757-.764v-13.78a.765.765 0 0 0-.757-.765H52.98v-8.787h1.515c.832 0 1.514-.688 1.514-1.53v-7.655a1.53 1.53 0 0 0-1.516-1.53zm-20.412-3.11c2.926 0 5.3 2.4 5.3 5.36s-2.374 5.357-5.3 5.357-5.298-2.398-5.298-5.358 2.372-5.358 5.298-5.358zm-15.137 0c2.925 0 5.298 2.4 5.298 5.36s-2.373 5.357-5.298 5.357c-2.926 0-5.298-2.398-5.298-5.358s2.372-5.358 5.298-5.358zM5.297 49.398c0-2.96 2.37-5.358 5.298-5.358 2.926 0 5.298 2.398 5.298 5.357 0 2.96-2.373 5.358-5.298 5.358-2.927 0-5.298-2.4-5.298-5.358zm13.648 19.497c-2.926 0-5.298-2.398-5.298-5.358s2.372-5.358 5.298-5.358c2.925 0 5.298 2.398 5.298 5.358s-2.373 5.358-5.298 5.358zm1.49-19.903c0-3.38 2.71-6.123 6.055-6.123 3.344 0 6.055 2.742 6.055 6.124s-2.71 6.125-6.055 6.125c-3.344 0-6.055-2.742-6.055-6.124zm13.647 19.904c-2.926 0-5.298-2.398-5.298-5.358s2.372-5.358 5.298-5.358 5.3 2.398 5.3 5.358-2.374 5.358-5.3 5.358zm8.302-14.138c-2.927 0-5.298-2.4-5.298-5.358 0-2.96 2.37-5.358 5.298-5.358 2.926 0 5.298 2.4 5.298 5.358 0 2.958-2.372 5.358-5.298 5.358zM9.646 15.31h33.687c.843 0 1.432-.68 1.306-1.514L43.022 3.028l-.002-.002C42.77 1.362 41.19 0 39.507 0H13.474c-1.686 0-3.268 1.362-3.517 3.028L8.342 13.795c-.125.833.46 1.515 1.304 1.515zM43.333 82.67H9.646c-.843 0-1.43.684-1.304 1.517l1.615 10.767c.25 1.666 1.832 3.028 3.516 3.028h26.032c1.684 0 3.266-1.362 3.517-3.026v-.002l1.615-10.767c.128-.833-.46-1.516-1.304-1.516z"/>
  </symbol>
  <symbol id="popular-6" viewBox="0 0 132 69">
    <path d="M12.052.258C6.507.745 1.838 1.85.575 2.93c-.722.616-.722.616-.232 1.156.644.72 3.713 1.645 7.247 2.237 3.998.668 12.51.693 13.724.05 1.21-.667 1.624-1.413 1.624-2.98 0-1.62-.62-2.416-2.218-2.853C19.274.154 14.94 0 12.052.258zM25.774.488c-.13.283-.258 2.108-.258 4.112 0 4.06.155 3.778-2.192 3.933l-1.03.077-.13 2.545-.13 2.544-1.185.282c-2.58.668-4 2.595-3.793 5.294.128 1.927 1.03 3.34 2.58 4.087 1.108.513 1.468.538 11.245.538 5.545 0 10.137.08 10.188.182.05.128-1.11 9.407-2.58 20.64-1.444 11.23-2.682 20.996-2.708 21.665-.05 1.617.826 2.62 2.348 2.62 1.237 0 2.012-.64 2.32-1.9.13-.514 1.497-10.334 3.02-21.822 1.52-11.463 2.862-20.87 2.94-20.87.103 0 1.083 1.414 2.192 3.137 2.94 4.626 2.4 4.317 7.635 4.317h4.36v5.63l-5.134.076c-4.72.077-5.21.127-5.88.615-1.574 1.158-1.626 1.416-1.626 10.978 0 9.534.026 9.792 1.522 11.05l.85.695H81.695l.85-.696c1.497-1.257 1.522-1.515 1.522-11.05 0-9.56-.05-9.82-1.623-10.976-.67-.487-1.16-.537-5.882-.614L71.43 37.5v-5.63h4.36c5.234 0 4.693.308 7.633-4.318 1.11-1.723 2.09-3.136 2.194-3.136.076 0 1.418 9.406 2.94 20.87 1.522 11.487 2.89 21.307 3.018 21.82.31 1.26 1.082 1.902 2.32 1.902 1.522 0 2.4-1.004 2.348-2.62-.026-.67-1.264-10.437-2.71-21.667-1.468-11.23-2.63-20.51-2.577-20.638.05-.102 4.64-.18 10.19-.18 9.774 0 10.135-.026 11.243-.54 1.547-.745 2.45-2.16 2.578-4.086.207-2.7-1.21-4.626-3.79-5.294l-1.188-.283-.127-2.545-.13-2.545-1.03-.077c-2.348-.155-2.195.128-2.195-3.933 0-2.004-.128-3.83-.257-4.112-.205-.36-.542-.488-1.366-.488-.62 0-1.238.128-1.42.31-.206.204-.31 1.464-.31 3.93 0 2.468-.102 3.728-.31 3.933-.18.18-.9.308-1.648.308-1.626 0-1.652.053-1.652 3.11v2.288H32.48V11.59c0-3.057-.024-3.11-1.65-3.11-.748 0-1.47-.128-1.65-.307-.207-.205-.31-1.465-.31-3.932 0-2.466-.103-3.726-.31-3.93-.18-.182-.8-.31-1.418-.31-.825 0-1.16.128-1.368.488zm42.843 40.12c2.89.9 5.392 3.393 6.166 6.168.44 1.543.31 4.216-.284 5.784-.697 1.875-2.686 4.01-4.566 4.935-1.29.642-1.754.72-3.92.72-2.168 0-2.632-.078-3.922-.72-1.884-.926-3.87-3.06-4.566-4.935-.592-1.568-.722-4.24-.283-5.784.748-2.723 3.25-5.27 6.06-6.168 2.013-.642 3.302-.642 5.314 0z"/>
    <path d="M63.794 44.438c-2.037.925-3.507 3.65-3.07 5.73.775 3.677 4.824 5.553 7.997 3.702 1.986-1.158 2.992-3.547 2.452-5.783-.57-2.39-2.735-4.138-5.16-4.138-.645 0-1.625.23-2.218.488zM36.092.154c-3.92.668-4.513 1.13-4.513 3.444 0 1.825.462 2.416 2.267 2.956 1.55.462 7.172.514 10.5.128 6.86-.822 11.32-2.544 9.698-3.752-1.265-.9-4.902-1.876-9.054-2.39C42.517.232 36.996 0 36.093.154zM89.484.258c-6.32.59-11.864 2.08-11.864 3.186 0 1.722 7.84 3.47 15.63 3.495 5.804 0 7.196-.643 7.196-3.342 0-1.824-.62-2.62-2.373-3.084-1.65-.41-5.675-.514-8.59-.256zM112.776.283c-1.78.23-3.018.77-3.43 1.49-.387.77-.31 2.905.154 3.573.928 1.31 1.652 1.465 7.068 1.465 3.66 0 5.802-.128 7.867-.487 3.534-.592 6.603-1.517 7.248-2.237.49-.54.49-.54-.233-1.156-1.34-1.13-5.958-2.185-11.916-2.672-3.48-.283-4.488-.283-6.758.025z"/>
  </symbol>
</svg>
