<svg xmlns="http://www.w3.org/2000/svg" width="132" height="69" viewBox="0 0 132 69"><g fill="#363636"><path d="M12.052.258C6.507.745 1.838 1.85.575 2.93c-.722.616-.722.616-.232 1.156.644.72 3.713 1.645 7.247 2.237 3.998.668 12.51.693 13.724.05 1.21-.667 1.624-1.413 1.624-2.98 0-1.62-.62-2.416-2.218-2.853C19.274.154 14.94 0 12.052.258zM25.774.488c-.13.283-.258 2.108-.258 4.112 0 4.06.155 3.778-2.192 3.933l-1.03.077-.13 2.545-.13 2.544-1.185.282c-2.58.668-4 2.595-3.793 5.294.128 1.927 1.03 3.34 2.58 4.087 1.108.513 1.468.538 11.245.538 5.545 0 10.137.08 10.188.182.05.128-1.11 9.407-2.58 20.64-1.444 11.23-2.682 20.996-2.708 21.665-.05 1.617.826 2.62 2.348 2.62 1.237 0 2.012-.64 2.32-1.9.13-.514 1.497-10.334 3.02-21.822 1.52-11.463 2.862-20.87 2.94-20.87.103 0 1.083 1.414 2.192 3.137 2.94 4.626 2.4 4.317 7.635 4.317h4.36v5.63l-5.134.076c-4.72.077-5.21.127-5.88.615-1.574 1.158-1.626 1.416-1.626 10.978 0 9.534.026 9.792 1.522 11.05l.85.695H81.695l.85-.696c1.497-1.257 1.522-1.515 1.522-11.05 0-9.56-.05-9.82-1.623-10.976-.67-.487-1.16-.537-5.882-.614L71.43 37.5v-5.63h4.36c5.234 0 4.693.308 7.633-4.318 1.11-1.723 2.09-3.136 2.194-3.136.076 0 1.418 9.406 2.94 20.87 1.522 11.487 2.89 21.307 3.018 21.82.31 1.26 1.082 1.902 2.32 1.902 1.522 0 2.4-1.004 2.348-2.62-.026-.67-1.264-10.437-2.71-21.667-1.468-11.23-2.63-20.51-2.577-20.638.05-.102 4.64-.18 10.19-.18 9.774 0 10.135-.026 11.243-.54 1.547-.745 2.45-2.16 2.578-4.086.207-2.7-1.21-4.626-3.79-5.294l-1.188-.283-.127-2.545-.13-2.545-1.03-.077c-2.348-.155-2.195.128-2.195-3.933 0-2.004-.128-3.83-.257-4.112-.205-.36-.542-.488-1.366-.488-.62 0-1.238.128-1.42.31-.206.204-.31 1.464-.31 3.93 0 2.468-.102 3.728-.31 3.933-.18.18-.9.308-1.648.308-1.626 0-1.652.053-1.652 3.11v2.288H32.48V11.59c0-3.057-.024-3.11-1.65-3.11-.748 0-1.47-.128-1.65-.307-.207-.205-.31-1.465-.31-3.932 0-2.466-.103-3.726-.31-3.93-.18-.182-.8-.31-1.418-.31-.825 0-1.16.128-1.368.488zm42.843 40.12c2.89.9 5.392 3.393 6.166 6.168.44 1.543.31 4.216-.284 5.784-.697 1.875-2.686 4.01-4.566 4.935-1.29.642-1.754.72-3.92.72-2.168 0-2.632-.078-3.922-.72-1.884-.926-3.87-3.06-4.566-4.935-.592-1.568-.722-4.24-.283-5.784.748-2.723 3.25-5.27 6.06-6.168 2.013-.642 3.302-.642 5.314 0z"/><path d="M63.794 44.438c-2.037.925-3.507 3.65-3.07 5.73.775 3.677 4.824 5.553 7.997 3.702 1.986-1.158 2.992-3.547 2.452-5.783-.57-2.39-2.735-4.138-5.16-4.138-.645 0-1.625.23-2.218.488zM36.092.154c-3.92.668-4.513 1.13-4.513 3.444 0 1.825.462 2.416 2.267 2.956 1.55.462 7.172.514 10.5.128 6.86-.822 11.32-2.544 9.698-3.752-1.265-.9-4.902-1.876-9.054-2.39C42.517.232 36.996 0 36.093.154zM89.484.258c-6.32.59-11.864 2.08-11.864 3.186 0 1.722 7.84 3.47 15.63 3.495 5.804 0 7.196-.643 7.196-3.342 0-1.824-.62-2.62-2.373-3.084-1.65-.41-5.675-.514-8.59-.256zM112.776.283c-1.78.23-3.018.77-3.43 1.49-.387.77-.31 2.905.154 3.573.928 1.31 1.652 1.465 7.068 1.465 3.66 0 5.802-.128 7.867-.487 3.534-.592 6.603-1.517 7.248-2.237.49-.54.49-.54-.233-1.156-1.34-1.13-5.958-2.185-11.916-2.672-3.48-.283-4.488-.283-6.758.025z"/></g></svg>