<svg xmlns="http://www.w3.org/2000/svg" width="97" height="55" viewBox="0 0 97 55"><g fill="#363636"><path d="M84.13 32.64V20.002c0-1.31 1.046-2.37 2.336-2.37l8.326 1.58V11.02c0-2.355-1.708-3.43-4.202-4.265L67.403.175c1.616 1.39 1.89 2.04 1.89 4.396v45.21c0 2.356-.45 4.066-1.968 5.21l23.265-7.065c2.4-.833 4.202-4.216 4.202-6.572V33.44l-8.326 1.567c-1.29.002-2.335-1.06-2.335-2.368z"/><path d="M95.13 20.98l-7.6-1.445c-1.007 0-1.823.83-1.823 1.85v9.87c0 1.022.816 1.85 1.824 1.85l7.6-1.43c1.153-.42 1.823-.83 1.823-1.852V22.83c0-1.022-.766-1.507-1.824-1.85zM67.17 4.483c0-5.08-4.232-4.46-4.232-4.46S5.832 4.74 2.838 5.146 0 9.532 0 9.532v36.28c0 3.743 2.6 3.753 2.6 3.753l16.476 1.403L27.212 39.3s1.11-1.828 2.505-1.828c1.397 0 2.432 1.86 2.432 1.86l9.06 13.522s18.895 1.91 22.52 1.91c3.627-.002 3.44-5.025 3.44-5.025V4.482zm-54.188 32.71c-3.698 0-6.696-4.602-6.696-10.276s2.998-10.275 6.696-10.275c3.698 0 6.696 4.6 6.696 10.275s-2.998 10.275-6.696 10.275zm36.158 1.425c-4.662 0-8.44-5.24-8.44-11.7 0-6.464 3.78-11.703 8.44-11.703 4.662 0 8.442 5.24 8.442 11.702s-3.78 11.7-8.442 11.7z"/></g></svg>