<svg xmlns="http://www.w3.org/2000/svg" width="107" height="65" viewBox="0 0 107 65"><g fill="#363636"><path d="M98.967 4.074c.752 1.44 1.21 3.08 1.21 4.818v21.102c0 4.616-3.093 8.527-7.247 9.9-1.325 3.987-3.778 7.854-8.05 10.432-8.677 5.23-31.125 4.837-31.2 4.837-.077 0-22.512.395-31.188-4.837-4.216-2.545-6.708-6.347-8.042-10.28-4.418-1.208-7.756-5.25-7.756-10.052v-21.1c0-1.69.427-3.283 1.14-4.694C4.17 5.11 0 6.918 0 10.434v29.983C0 50.667 11.84 64.85 53.657 64.85c41.82 0 53.657-14.182 53.657-24.433V10.434c0-3.684-4.576-5.494-8.347-6.36z"/><path d="M20.56 38.46h65.524c5.564 0 10.074-4.514 10.074-10.078V9.935c0-5.563-4.51-10.075-10.074-10.075H20.56c-5.563 0-10.074 4.51-10.074 10.075v18.447c0 5.564 4.51 10.077 10.075 10.077zM83.696 9.467a1.57 1.57 0 1 1 0 3.14 1.57 1.57 0 0 1 0-3.14zm0 4.04a1.57 1.57 0 1 1 0 3.137 1.57 1.57 0 0 1 0-3.138zm0 4.038a1.568 1.568 0 1 1 0 3.137 1.568 1.568 0 0 1 0-3.137zm0 3.827a1.57 1.57 0 1 1 0 3.14 1.57 1.57 0 0 1 0-3.14zm0 4.04a1.568 1.568 0 1 1 0 3.136 1.568 1.568 0 0 1 0-3.138zm-4.04-15.945c.868 0 1.57.703 1.57 1.57a1.568 1.568 0 0 1-3.137 0c0-.868.703-1.57 1.568-1.57zm0 15.944a1.568 1.568 0 1 1 .002 3.135 1.568 1.568 0 0 1 0-3.135zM75.62 9.468a1.57 1.57 0 1 1-.004 3.14 1.57 1.57 0 0 1 .003-3.14zm0 4.04a1.57 1.57 0 1 1-.004 3.138 1.57 1.57 0 0 1 .003-3.14zm0 4.038a1.57 1.57 0 1 1-.003 3.138 1.57 1.57 0 0 1 .002-3.138zm0 3.827a1.568 1.568 0 1 1 0 3.138 1.568 1.568 0 0 1 0-3.138zm0 4.04a1.57 1.57 0 1 1-.003 3.137 1.57 1.57 0 0 1 .002-3.138zM67.964 9.467c.867 0 1.568.703 1.568 1.57a1.568 1.568 0 0 1-3.136 0c0-.868.703-1.57 1.568-1.57zm0 8.078c.867 0 1.568.702 1.568 1.57a1.568 1.568 0 1 1-1.568-1.57zm0 3.88a1.57 1.57 0 1 1-1.568 1.568c0-.866.703-1.567 1.568-1.567zm0 3.986a1.568 1.568 0 1 1-1.568 1.57c0-.868.703-1.57 1.568-1.57zm-4.04-15.944a1.57 1.57 0 1 1-1.568 1.57c0-.868.704-1.57 1.57-1.57zm0 8.078a1.57 1.57 0 1 1-1.568 1.57c0-.868.704-1.57 1.57-1.57zm0 7.866a1.57 1.57 0 1 1-1.568 1.57c0-.868.704-1.57 1.57-1.57zM59.89 9.468a1.57 1.57 0 0 1 0 3.14 1.568 1.568 0 0 1-1.568-1.57c0-.868.7-1.57 1.568-1.57zm0 4.04c.865 0 1.57.702 1.57 1.567a1.57 1.57 0 1 1-1.57-1.568zm0 4.038a1.57 1.57 0 1 1-1.568 1.57c0-.868.7-1.57 1.568-1.57zm0 7.866a1.57 1.57 0 0 1 0 3.137 1.57 1.57 0 1 1 0-3.138zm-8.29-15.944a1.57 1.57 0 1 1-1.568 1.57c0-.868.7-1.57 1.568-1.57zm0 4.04a1.57 1.57 0 1 1-1.568 1.567c0-.865.7-1.568 1.568-1.568zm0 4.038a1.568 1.568 0 1 1-1.568 1.57c0-.868.7-1.57 1.568-1.57zm0 3.88a1.568 1.568 0 0 1 0 3.138 1.57 1.57 0 1 1 0-3.137zm0 3.986a1.568 1.568 0 1 1-1.568 1.57c0-.868.7-1.57 1.568-1.57zm-4.04-11.905a1.568 1.568 0 1 1 0 3.136 1.568 1.568 0 0 1 0-3.136zm-8.5-.212a1.57 1.57 0 1 1 0 3.135 1.57 1.57 0 0 1 0-3.135zm0 4.038a1.57 1.57 0 1 1-.004 3.14 1.57 1.57 0 0 1 .003-3.14zm-4.04-8.078a1.57 1.57 0 1 1-.003 3.14 1.57 1.57 0 0 1 .003-3.14zm0 4.04a1.57 1.57 0 1 1-.003 3.14 1.57 1.57 0 0 1 .003-3.14zm0 4.038a1.57 1.57 0 1 1-.003 3.14 1.57 1.57 0 0 1 .003-3.14zm0 4.04a1.57 1.57 0 1 1 0 3.137 1.57 1.57 0 0 1 0-3.137zm-4.254-8.078a1.57 1.57 0 1 1 0 3.138 1.57 1.57 0 0 1 0-3.138zm0 4.038a1.57 1.57 0 1 1 0 3.14 1.57 1.57 0 0 1 0-3.14zm0 4.04a1.57 1.57 0 1 1 0 3.14 1.57 1.57 0 0 1 0-3.14zm0 4.04a1.568 1.568 0 1 1 0 3.136 1.568 1.568 0 0 1 0-3.138zM26.3 9.254a1.57 1.57 0 1 1 .002 3.136 1.57 1.57 0 0 1-.002-3.136zm0 4.04c.867 0 1.57.703 1.57 1.568a1.57 1.57 0 0 1-3.14 0 1.57 1.57 0 0 1 1.57-1.568zm0 4.038a1.57 1.57 0 0 1 0 3.14 1.57 1.57 0 0 1 0-3.14zm0 4.04a1.57 1.57 0 1 1 .003 3.135 1.57 1.57 0 0 1-.003-3.135zm-4.037-8.078a1.57 1.57 0 1 1 0 3.135 1.57 1.57 0 0 1 0-3.135zm0 4.038a1.57 1.57 0 0 1 0 3.14 1.57 1.57 0 1 1 0-3.14z"/></g></svg>