<svg xmlns="http://www.w3.org/2000/svg" width="71" height="87" viewBox="0 0 71 87"><g fill="#363636"><path d="M53.35 1.49c0-.736-.58-1.49-1.312-1.49H9.053c-.733 0-1.38.754-1.38 1.49v3.522h45.675V1.49zM54.202 81.81h-9.597V71.425h-6.958v2.507H18.774c-.537-1.254-1.757-2.148-3.18-2.148H3.558C1.64 71.785 0 73.387 0 75.31v3.02c0 1.923 1.642 3.48 3.56 3.48h12.034c1.51 0 2.792-.897 3.27-2.327h18.784v2.326H28.13c-.533 0-1.01.436-1.01.97v3.173c0 .535.478 1.048 1.01 1.048h26.072c.533 0 .93-.512.93-1.047V82.78c0-.535-.397-.97-.93-.97zM60.666 12.39a7.037 7.037 0 0 0-6.77-5.05H7.147C3.25 7.34 0 10.45 0 14.36v46.9c0 3.913 3.25 7.122 7.148 7.122h46.747c3.898 0 7.126-3.21 7.126-7.12V50.914A23.228 23.228 0 0 0 71.023 31.75c0-8.078-4.132-15.18-10.356-19.36zM12.238 62.15c-3.26 0-5.9-2.65-5.9-5.92s2.64-5.922 5.9-5.922 5.902 2.652 5.902 5.922c0 3.27-2.643 5.92-5.902 5.92zm5.96-32.604a1.42 1.42 0 0 1-1.417 1.422H7.84a1.42 1.42 0 0 1-1.417-1.422v-14.16a1.42 1.42 0 0 1 1.418-1.423h8.94a1.42 1.42 0 0 1 1.418 1.423v14.16zm29.564 22.312c-11.076 0-20.057-9.01-20.057-20.123s8.98-20.124 20.057-20.124c11.077 0 20.058 9.01 20.058 20.125s-8.98 20.123-20.058 20.123z"/><ellipse cx="47.762" cy="31.735" rx="12.188" ry="12.229"/><circle cx="31.562" cy="31.736" r="1.435"/><circle cx="63.963" cy="31.736" r="1.435"/><circle cx="39.109" cy="17.994" r="1.435"/><ellipse cx="56.415" cy="45.476" rx="1.43" ry="1.436"/><circle cx="55.697" cy="17.565" r="1.435"/><circle cx="39.828" cy="45.906" r="1.435"/></g></svg>