<svg xmlns="http://www.w3.org/2000/svg" width="56" height="98" viewBox="0 0 56 98"><g fill="#363636"><path d="M54.494 32.197H52.98v-4.64c0-5.052-4.088-9.186-9.083-9.186H9.082C4.086 18.373 0 22.506 0 27.558v42.868c0 5.052 4.087 9.185 9.083 9.185h34.815c4.995 0 9.082-4.133 9.082-9.185V67.01h1.515a.764.764 0 0 0 .757-.764v-13.78a.765.765 0 0 0-.757-.765H52.98v-8.787h1.515c.832 0 1.514-.688 1.514-1.53v-7.655a1.53 1.53 0 0 0-1.516-1.53zm-20.412-3.11c2.926 0 5.3 2.4 5.3 5.36s-2.374 5.357-5.3 5.357-5.298-2.398-5.298-5.358 2.372-5.358 5.298-5.358zm-15.137 0c2.925 0 5.298 2.4 5.298 5.36s-2.373 5.357-5.298 5.357c-2.926 0-5.298-2.398-5.298-5.358s2.372-5.358 5.298-5.358zM5.297 49.398c0-2.96 2.37-5.358 5.298-5.358 2.926 0 5.298 2.398 5.298 5.357 0 2.96-2.373 5.358-5.298 5.358-2.927 0-5.298-2.4-5.298-5.358zm13.648 19.497c-2.926 0-5.298-2.398-5.298-5.358s2.372-5.358 5.298-5.358c2.925 0 5.298 2.398 5.298 5.358s-2.373 5.358-5.298 5.358zm1.49-19.903c0-3.38 2.71-6.123 6.055-6.123 3.344 0 6.055 2.742 6.055 6.124s-2.71 6.125-6.055 6.125c-3.344 0-6.055-2.742-6.055-6.124zm13.647 19.904c-2.926 0-5.298-2.398-5.298-5.358s2.372-5.358 5.298-5.358 5.3 2.398 5.3 5.358-2.374 5.358-5.3 5.358zm8.302-14.138c-2.927 0-5.298-2.4-5.298-5.358 0-2.96 2.37-5.358 5.298-5.358 2.926 0 5.298 2.4 5.298 5.358 0 2.958-2.372 5.358-5.298 5.358zM9.646 15.31h33.687c.843 0 1.432-.68 1.306-1.514L43.022 3.028l-.002-.002C42.77 1.362 41.19 0 39.507 0H13.474c-1.686 0-3.268 1.362-3.517 3.028L8.342 13.795c-.125.833.46 1.515 1.304 1.515zM43.333 82.67H9.646c-.843 0-1.43.684-1.304 1.517l1.615 10.767c.25 1.666 1.832 3.028 3.516 3.028h26.032c1.684 0 3.266-1.362 3.517-3.026v-.002l1.615-10.767c.128-.833-.46-1.516-1.304-1.516z"/></g></svg>