<svg xmlns="http://www.w3.org/2000/svg" width="86" height="117" viewBox="0 0 86 117"><g fill="#363636"><path d="M82.82 4.01H3.33A3.188 3.188 0 0 0 .142 7.2V53.61a3.187 3.187 0 0 0 3.188 3.19h79.492a3.188 3.188 0 0 0 3.19-3.19V7.2a3.19 3.19 0 0 0-3.19-3.19zM8.393 37.237h-.226a3.19 3.19 0 0 1-3.19-3.19v-7.282a3.188 3.188 0 0 1 3.19-3.188h.226v13.66zm61.23 15.172h-56.28V8.402h56.28v44.006zM78.4 34.552c-2.29 0-4.146-1.855-4.146-4.147s1.856-4.147 4.146-4.147a4.146 4.146 0 0 1 0 8.294zM31.497 0h23.157v2.758H31.497zM46.608 64.86V61.89h8.046V59.13H31.498v2.758h8.045v35.246a6.068 6.068 0 0 0-3.635 5.56V117h14.335v-14.307a6.062 6.062 0 0 0-3.636-5.557v-27.99h4.796l5.05 1.213v-6.712l-5.05 1.213h-4.795z"/></g></svg>