<svg xmlns="http://www.w3.org/2000/svg" width="171" height="195" viewBox="0 0 171 195"><g fill="#FFF"><path d="M77.694 174.636c-.104-.13-10.495-12.996-12.61-15.76-1.32-1.727-3.306-2.678-5.592-2.678-2.56 0-4.836 1.17-5.512 1.553l-5.486 2.744c-1.773-.48-5.587-1.95-9.28-6.268-3.284-3.84-3.26-8.986-3.086-11.1l5.893-5.892c3.094-2.717 2.453-6.516 1.247-8.43l-.22-.312-14.665-18.498c-.99-1.25-2.475-1.938-4.184-1.938-2.85 0-5.88 1.975-6.756 2.592-10.885 7.75-11.586 14.562-11.63 15.313l-.025.415.074.41c6.413 35.725 26.027 51.136 35.454 58.542 1.148.9 2.14 1.68 2.854 2.306C50.73 193.38 57.93 194 60.72 194c2.376 0 4.48-.405 6.09-1.17 4.366-2.08 9.425-8.01 10.872-9.78 2.5-3.058 1.283-6.598.168-8.207l-.156-.207zM63.8 186.51c-.498.236-1.57.49-3.08.49-1.56 0-7.032-.334-11.944-4.632-.854-.747-1.913-1.58-3.14-2.543-8.693-6.83-26.728-21-32.78-53.684.29-.978 1.83-4.937 8.62-9.77a11.385 11.385 0 0 1 2.12-1.142c2.83 3.572 11.41 14.392 13.502 17.03l-7.528 7.527-.203 1.055c-.08.422-1.91 10.41 4.527 17.937 6.286 7.35 13.25 8.667 14.583 8.856l1.082.154 7.643-3.823.218-.118c.282-.167 1.336-.648 2.072-.648.036 0 .065 0 .088.003 2.15 2.8 11.105 13.898 12.5 15.625a.03.03 0 0 0 .004.01c-2.562 3.095-6.173 6.67-8.283 7.674zM137.85 65.824c5.512-5.177 7.156-11.975 5.033-20.783a2.502 2.502 0 0 0-4.103-1.27l-8.22 7.402c-1.44-.795-3.677-2.45-4.466-5.33l6.803-6.73a2.502 2.502 0 0 0 .104-3.445l-.185-.207a2.473 2.473 0 0 0-.678-.533c-.16-.086-3.988-2.116-8.824-2.116-4.71 0-8.86 1.922-12.002 5.557-6 6.938-4.556 15.042-3.542 18.47l-3.488 3.49-10.284-9.237 4.717-3.266L78.67 34.1l-10.6 10.603 13.724 20.04 3.266-4.716 9.237 10.282-3.295 3.293c-1.5-.478-3.883-1.052-6.663-1.052-5.43 0-10.237 2.175-13.963 6.36-.27.33-6.6 8.165-2.75 18.62a2.5 2.5 0 0 0 3.992 1.02l8.294-7.26c1.323.568 3.622 2.08 4.66 5.926l-7.385 7.516a2.498 2.498 0 0 0 1.217 4.187c.11.024 2.724.622 6.175.622 6.84 0 12.112-2.27 15.245-6.567 3.363-4.613 4.094-9.433 3.994-13.088l16.218 16.217.172.158c1.52 1.26 4.318 2.725 7.45 2.725 2.228 0 4.626-.74 6.853-2.824l5.518-5.516.103-.104c5.012-5.358 2.258-11.698.1-14.302l-16.945-16.958c1.027.106 2.148.18 3.322.18 4.888 0 8.67-1.224 11.24-3.638zm-53.3-13.846l-2.733 3.95L74.54 45.3l4.732-4.732 10.625 7.276-3.95 2.734 14.792 13.286-4.095 4.093 1.19-1.193-13.284-14.79zm13.563 33.524c.11.313 2.615 7.746-2.328 14.527-2.77 3.797-7.748 4.525-11.4 4.51l4.703-4.786c.566-.576.82-1.39.68-2.187-1.79-10.147-9.745-11.484-10.083-11.536-.73-.11-1.47.105-2.027.59l-6.204 5.428c-.522-5.56 2.413-9.49 2.76-9.932 2.72-3.03 6.126-4.566 10.124-4.566 3.515 0 6.23 1.21 6.25 1.22a2.5 2.5 0 0 0 2.817-.5l19-19a2.493 2.493 0 0 0 .527-2.757c-.035-.083-3.494-8.34 2.158-14.876 2.195-2.54 4.96-3.826 8.22-3.826 1.23 0 2.384.184 3.366.422l-5.047 4.993a2.5 2.5 0 0 0-.726 2.08c1.012 8.3 8.97 11.077 9.307 11.19.856.29 1.802.095 2.474-.51l6.05-5.447c.372 4.864-1.02 8.554-4.31 11.642-2.008 1.887-5.36 2.283-7.818 2.283-3.69 0-6.95-.865-6.982-.873a2.502 2.502 0 0 0-2.43.653l-18.5 18.667a2.52 2.52 0 0 0-.58 2.592zm5.502 1.842v0zm-.18-1.12zm33.09 10.855l-5.48 5.475c-3.247 2.98-6.9.432-7.575-.087l-18.643-18.645 14.94-15.075-2.034 2.053 18.707 18.707c.46.592 3.097 4.287.085 7.572zm-15.21-28.055zm-.842-.143l.066.012a4.19 4.19 0 0 1-.067-.012z"/><path d="M104.162 6.002c-36.408 0-65.922 29.514-65.922 65.922 0 33.517 25.02 61.172 57.398 65.354v26.224s57.44-21.243 71.97-73.622c.077-.283.138-.538.21-.812.113-.424.225-.85.33-1.277.064-.262.12-.513.178-.768a66.07 66.07 0 0 0 1.758-15.098c0-36.408-29.514-65.922-65.922-65.922zm57.348 79.422l-.006.027-.006.028-.03.13c-.038.17-.075.34-.118.515-.094.376-.19.75-.3 1.16l-.105.4a9.602 9.602 0 0 1-.082.325c-5.564 20.056-18.52 37.7-38.506 52.442-7.373 5.438-14.408 9.464-19.72 12.175V131.123l-6.103-.788c-29.243-3.777-51.295-28.89-51.295-58.412C45.24 39.433 71.67 13 104.16 13s58.923 26.433 58.923 58.923c0 4.51-.528 9.05-1.573 13.5z"/></g><path fill="#3A3A3A" d="M54.583 187.998c-2.79 0-9.99-.62-16.554-6.364-.715-.625-1.707-1.404-2.855-2.306-9.426-7.406-29.04-22.817-35.453-58.543l-.074-.41.024-.413c.044-.752.746-7.564 11.63-15.313.878-.618 3.908-2.593 6.757-2.593 1.707 0 3.193.688 4.183 1.938 1.804 2.277 14.666 18.498 14.666 18.498l.218.31c1.206 1.916 1.847 5.715-1.246 8.432l-5.893 5.893c-.176 2.112-.2 7.26 3.085 11.1 3.692 4.316 7.507 5.788 9.28 6.267l5.486-2.743c.677-.383 2.953-1.553 5.513-1.553 2.286 0 4.272.95 5.593 2.677 2.114 2.764 12.504 15.63 12.61 15.76l.154.207c1.115 1.61 2.333 5.15-.168 8.208-1.447 1.77-6.505 7.7-10.872 9.778-1.607.763-3.712 1.167-6.087 1.168zM6.72 120.14c6.05 32.683 24.086 46.854 32.78 53.684 1.226.964 2.285 1.796 3.14 2.543C47.55 180.665 53.022 181 54.582 181c1.51 0 2.582-.255 3.08-.492 2.11-1.005 5.723-4.58 8.285-7.674 0-.003-.003-.006-.004-.01-1.394-1.727-10.35-12.824-12.5-15.624a1.063 1.063 0 0 0-.088-.003c-.736 0-1.79.48-2.07.648l-.22.118-7.643 3.823-1.082-.154c-1.332-.19-8.296-1.508-14.582-8.856-6.438-7.527-4.608-17.515-4.527-17.937l.204-1.056 7.528-7.527-13.502-17.03c-.61.237-1.467.688-2.12 1.142-6.792 4.832-8.332 8.79-8.62 9.77z"/><path fill="#F0C42E" d="M78.443 103.54c-3.452 0-6.065-.598-6.175-.623a2.5 2.5 0 0 1-1.218-4.187l7.384-7.516c-1.037-3.845-3.336-5.357-4.66-5.925l-8.294 7.258a2.503 2.503 0 0 1-3.993-1.018c-3.848-10.457 2.48-18.293 2.75-18.622 3.727-4.185 8.534-6.36 13.963-6.36 2.78 0 5.162.575 6.663 1.053l16.766-16.764c-1.014-3.43-2.458-11.534 3.542-18.47 3.143-3.635 7.293-5.557 12.002-5.557 4.837 0 8.664 2.028 8.825 2.115.254.137.483.317.676.533l.186.207c.89.993.845 2.508-.104 3.446l-6.803 6.73c.79 2.88 3.028 4.535 4.465 5.33l8.222-7.403a2.5 2.5 0 0 1 4.103 1.272c2.123 8.81.478 15.606-5.033 20.783-2.57 2.414-6.353 3.638-11.242 3.638-2.79 0-5.324-.407-6.84-.714L97.128 79.4c.73 3.18 1.63 10.62-3.44 17.573-3.132 4.296-8.404 6.567-15.244 6.567zm-.196-5c3.65.014 8.63-.715 11.4-4.513 4.944-6.78 2.438-14.214 2.33-14.527a2.518 2.518 0 0 1 .58-2.593l18.5-18.667a2.5 2.5 0 0 1 2.43-.653c.03.008 3.294.873 6.983.873 2.458 0 5.81-.396 7.818-2.283 3.288-3.088 4.68-6.778 4.31-11.642l-6.05 5.447c-.672.604-1.617.8-2.473.51-.338-.113-8.295-2.89-9.307-11.19a2.496 2.496 0 0 1 .724-2.08l5.047-4.993a14.37 14.37 0 0 0-3.366-.422c-3.26 0-6.024 1.288-8.22 3.826-5.652 6.536-2.193 14.793-2.158 14.876a2.5 2.5 0 0 1-.528 2.756l-19 19a2.5 2.5 0 0 1-2.817.5c-.017-.007-2.734-1.22-6.25-1.22-3.997 0-7.403 1.537-10.124 4.567-.347.442-3.282 4.372-2.76 9.932l6.205-5.428a2.506 2.506 0 0 1 2.028-.59c.337.053 8.29 1.39 10.082 11.537.14.796-.112 1.61-.68 2.187l-4.703 4.79z"/><g fill="#3A3A3A"><path d="M78.92 54.025l9.238 10.282 3.54-3.54-13.285-14.79-2.735 3.948L68.402 39.3l4.732-4.73 10.625 7.275-3.95 2.734L94.6 57.864l3.54-3.54-10.282-9.237 4.717-3.266-20.042-13.724-10.6 10.603 13.723 20.042zM117.147 63.28a37.19 37.19 0 0 1-3.517-.534l-2.034 2.053 18.706 18.705c.46.592 3.097 4.287.084 7.572l-5.478 5.476c-3.248 2.98-6.9.432-7.576-.087L98.69 77.82l-1.563 1.58c.245 1.07.505 2.63.555 4.484l16.217 16.218.172.158c1.52 1.26 4.318 2.725 7.45 2.725 2.228 0 4.625-.74 6.853-2.824l5.518-5.515.102-.103c5.012-5.358 2.257-11.7.1-14.303l-16.948-16.96z"/></g><path fill="#3A3A3A" d="M98.023 7c32.49 0 58.922 26.432 58.922 58.922 0 4.508-.53 9.05-1.573 13.5l-.006.027-.007.026-.03.13c-.038.17-.076.34-.118.515-.094.377-.19.752-.302 1.162l-.103.4a12.83 12.83 0 0 1-.083.324c-5.564 20.056-18.52 37.7-38.506 52.442-7.373 5.438-14.408 9.464-19.72 12.175V125.12l-6.103-.787C61.152 120.556 39.1 95.443 39.1 65.92 39.103 33.433 65.535 7 98.024 7m0-7c-36.407 0-65.92 29.514-65.92 65.922 0 33.517 25.02 61.172 57.397 65.354V157.5s57.44-21.243 71.97-73.622c.078-.283.138-.538.21-.812.114-.424.225-.85.33-1.277.064-.264.12-.515.178-.77a66.014 66.014 0 0 0 1.758-15.098C163.946 29.514 134.432 0 98.023 0z"/></svg>